<?xml version="1.0" standalone="no"?>
<!DOCTYPE svg PUBLIC "-//W3C//DTD SVG 20010904//EN"
 "http://www.w3.org/TR/2001/REC-SVG-20010904/DTD/svg10.dtd">
<svg version="1.0" xmlns="http://www.w3.org/2000/svg"
 width="256.000000pt" height="256.000000pt" viewBox="0 0 256.000000 256.000000"
 preserveAspectRatio="xMidYMid meet">

<g transform="translate(0.000000,256.000000) scale(0.100000,-0.100000)"
fill="#000000" stroke="none">
<path d="M1050 2331 c-102 -33 -175 -118 -187 -220 -5 -41 -2 -52 16 -70 11
-11 30 -21 41 -21 29 0 60 35 60 68 0 37 33 88 72 112 30 18 51 20 228 20 177
0 198 -2 228 -20 39 -24 72 -75 72 -112 0 -33 31 -68 60 -68 11 0 30 10 41 21
41 41 8 159 -63 225 -70 66 -81 69 -323 71 -121 1 -231 -2 -245 -6z"/>
<path d="M410 1931 c-69 -22 -130 -73 -166 -141 -17 -30 -19 -63 -22 -247 -2
-125 1 -219 6 -230 13 -23 149 -99 272 -151 486 -206 1026 -211 1519 -16 137
54 298 140 312 167 6 11 9 101 7 230 -3 236 -8 256 -80 323 -78 74 -5 69 -963
71 -473 1 -871 -2 -885 -6z m1738 -131 c65 -40 72 -65 72 -257 l0 -173 -113
-55 c-528 -255 -1136 -255 -1654 1 l-113 56 0 171 c0 192 7 217 72 257 32 19
52 20 868 20 816 0 836 -1 868 -20z"/>
<path d="M239 1079 c-19 -19 -20 -29 -17 -347 3 -296 5 -330 22 -362 26 -49
74 -98 121 -123 l40 -22 875 0 c834 0 877 1 910 19 49 26 98 74 123 121 21 38
22 54 25 367 3 318 2 328 -17 347 -26 26 -55 27 -81 1 -19 -19 -20 -33 -20
-328 0 -289 -1 -309 -20 -340 -11 -18 -34 -41 -52 -52 -32 -19 -52 -20 -868
-20 -816 0 -836 1 -868 20 -18 11 -41 34 -52 52 -19 31 -20 51 -20 341 0 294
-1 308 -20 327 -26 26 -55 25 -81 -1z"/>
</g>
</svg>
